<?xml version="1.0" encoding="UTF-8"?>
<svg xmlns="http://www.w3.org/2000/svg" xmlns:xlink="http://www.w3.org/1999/xlink" width="30px" height="30px" viewBox="0 0 30 30" version="1.1">
<g id="surface1">
<path style=" stroke:none;fill-rule:nonzero;fill:rgb(0%,0%,0%);fill-opacity:1;" d="M 2.441406 5.671875 C 1.175781 6.21875 1.148438 8.355469 2.390625 9.007812 C 2.734375 9.179688 4.242188 9.207031 15.011719 9.207031 C 25.78125 9.207031 27.289062 9.179688 27.636719 9.007812 C 28.890625 8.355469 28.851562 6.207031 27.558594 5.660156 C 26.878906 5.378906 3.097656 5.390625 2.441406 5.671875 Z M 2.441406 5.671875 "/>
<path style=" stroke:none;fill-rule:nonzero;fill:rgb(0%,0%,0%);fill-opacity:1;" d="M 2.308594 13.878906 C 1.109375 14.601562 1.214844 16.628906 2.46875 17.160156 C 3.148438 17.441406 26.878906 17.441406 27.558594 17.160156 C 28.851562 16.613281 28.890625 14.464844 27.636719 13.8125 C 27.289062 13.640625 25.78125 13.613281 14.988281 13.613281 C 3.070312 13.613281 2.722656 13.625 2.308594 13.878906 Z M 2.308594 13.878906 "/>
<path style=" stroke:none;fill-rule:nonzero;fill:rgb(0%,0%,0%);fill-opacity:1;" d="M 2.722656 21.765625 C 2.480469 21.832031 2.109375 22.101562 1.882812 22.351562 C 1.535156 22.753906 1.46875 22.941406 1.46875 23.5 C 1.46875 24.339844 1.773438 24.902344 2.429688 25.234375 C 2.910156 25.476562 3.390625 25.488281 15.011719 25.488281 C 26.636719 25.488281 27.117188 25.476562 27.597656 25.234375 C 28.25 24.902344 28.558594 24.339844 28.558594 23.5 C 28.558594 22.941406 28.492188 22.753906 28.144531 22.367188 C 27.917969 22.101562 27.519531 21.832031 27.25 21.753906 C 26.625 21.578125 3.308594 21.59375 2.722656 21.765625 Z M 2.722656 21.765625 "/>
</g>
</svg>
