<?xml version="1.0" encoding="UTF-8"?>
<svg xmlns="http://www.w3.org/2000/svg" xmlns:xlink="http://www.w3.org/1999/xlink" width="150px" height="108px" viewBox="0 0 149 108" version="1.1">
<g id="surface1">
<path style=" stroke:none;fill-rule:nonzero;fill:rgb(0%,0%,0%);fill-opacity:1;" d="M 0 53.953125 L 0 107.90625 L 149.046875 107.90625 L 149.046875 0 L 0 0 Z M 81.847656 6.832031 C 99.132812 9.125 113.574219 20.726562 119.769531 37.28125 C 122.886719 45.664062 123.417969 55.78125 121.179688 64.722656 C 120.578125 67.105469 119.121094 71.273438 118.75 71.644531 C 118.382812 72.039062 118.519531 71.460938 119.144531 69.929688 C 120.023438 67.753906 121.246094 63.054688 121.710938 60.136719 C 122.242188 56.617188 122.242188 49.902344 121.710938 46.382812 C 120.207031 36.75 115.910156 28.042969 109.183594 21.09375 C 98 9.515625 82.195312 4.515625 66.667969 7.664062 C 57.65625 9.492188 49.890625 13.683594 43.1875 20.378906 C 37.710938 25.820312 33.992188 31.746094 31.773438 38.554688 C 28.5625 48.328125 28.585938 58.65625 31.867188 68.195312 C 33.113281 71.785156 33.160156 71.945312 32.882812 71.667969 C 32.050781 70.859375 30.085938 64.027344 29.460938 59.859375 C 28.953125 56.476562 28.953125 50.039062 29.460938 46.660156 C 32.558594 25.886719 48.875 9.679688 69.554688 6.832031 C 72.605469 6.414062 78.707031 6.414062 81.847656 6.832031 Z M 82.265625 8.9375 C 89.589844 9.980469 96.359375 12.828125 102.808594 17.527344 C 105.003906 19.148438 109.671875 23.828125 111.519531 26.28125 C 117.433594 34.132812 120.484375 43.371094 120.460938 53.257812 C 120.4375 58.769531 119.769531 62.890625 118.082031 67.984375 C 117.480469 69.746094 117.273438 70.140625 117.042969 69.929688 C 116.789062 69.722656 116.855469 69.304688 117.410156 67.660156 C 119.027344 62.914062 119.746094 58.445312 119.746094 53.375 C 119.746094 41.332031 115.308594 30.472656 106.988281 22.207031 C 98.324219 13.59375 87.785156 9.214844 75.792969 9.214844 C 63.800781 9.214844 53.101562 13.660156 44.597656 22.230469 C 36.234375 30.613281 31.890625 41.171875 31.84375 53.144531 C 31.820312 58.515625 32.464844 62.566406 34.085938 67.40625 C 34.683594 69.191406 34.800781 69.722656 34.570312 69.910156 C 34.039062 70.371094 32.304688 64.605469 31.542969 59.742188 C 30.710938 54.554688 31.082031 47.492188 32.511719 42.144531 C 34.683594 33.855469 38.242188 27.625 44.113281 21.742188 C 49.105469 16.789062 53.820312 13.707031 60.195312 11.300781 C 67.105469 8.683594 74.753906 7.875 82.265625 8.9375 Z M 91.621094 37.511719 L 107.335938 53.257812 L 99.109375 61.503906 L 90.90625 69.722656 L 89.636719 69.652344 L 88.386719 69.585938 L 96.476562 61.410156 L 104.539062 53.234375 L 90.628906 39.296875 L 76.71875 25.355469 L 76.71875 54.648438 L 74.871094 54.648438 L 74.871094 25.355469 L 60.957031 39.296875 L 47.046875 53.234375 L 55.113281 61.410156 L 63.152344 69.585938 L 61.929688 69.652344 L 60.679688 69.722656 L 52.476562 61.503906 L 44.25 53.257812 L 59.964844 37.511719 C 68.609375 28.851562 75.726562 21.765625 75.792969 21.765625 C 75.863281 21.765625 82.980469 28.851562 91.621094 37.511719 Z M 68.886719 25.796875 C 67.867188 26.816406 67.128906 27.347656 66.480469 27.554688 C 65.027344 27.972656 60.914062 30.195312 59.296875 31.445312 C 55.414062 34.433594 52.410156 38.371094 50.46875 43.023438 C 49.726562 44.785156 49.335938 45.410156 48.203125 46.496094 L 46.863281 47.816406 L 47.023438 46.890625 C 47.347656 45.015625 48.386719 42.191406 49.613281 39.757812 C 53.101562 32.90625 59.085938 27.765625 66.433594 25.285156 C 70.480469 23.921875 70.6875 23.964844 68.886719 25.796875 Z M 85.152344 25.285156 C 87.554688 26.097656 90.28125 27.394531 92.039062 28.574219 C 95.042969 30.589844 98.417969 33.945312 100.402344 36.933594 C 102.207031 39.667969 104.078125 44.160156 104.5625 46.890625 L 104.726562 47.816406 L 103.339844 46.449219 C 102.554688 45.6875 101.8125 44.761719 101.652344 44.367188 C 100.867188 42.328125 99.941406 40.339844 99.292969 39.273438 C 97.609375 36.492188 94.859375 33.4375 92.175781 31.351562 C 90.675781 30.195312 86.515625 27.949219 85.105469 27.554688 C 84.4375 27.347656 83.71875 26.816406 82.679688 25.773438 L 81.222656 24.269531 L 82.148438 24.429688 C 82.65625 24.5 84.019531 24.894531 85.152344 25.285156 Z M 50.050781 62.5 C 50.605469 64.003906 52.292969 67.316406 53.125 68.542969 L 53.839844 69.585938 L 52.664062 69.652344 C 52.015625 69.699219 51.367188 69.605469 51.207031 69.492188 C 51.046875 69.351562 50.328125 68.125 49.636719 66.757812 C 48.386719 64.351562 47.347656 61.527344 47.023438 59.625 L 46.863281 58.699219 L 48.25 60.066406 C 49.152344 60.945312 49.796875 61.804688 50.050781 62.5 Z M 104.125 61.433594 C 103.800781 62.613281 102.851562 64.90625 102 66.621094 L 100.449219 69.699219 L 99.085938 69.699219 C 98.046875 69.699219 97.769531 69.628906 97.886719 69.398438 C 97.976562 69.261719 98.394531 68.589844 98.808594 67.964844 C 99.757812 66.457031 101.074219 63.816406 101.445312 62.636719 C 101.765625 61.664062 104.492188 58.585938 104.632812 59.023438 C 104.679688 59.164062 104.449219 60.253906 104.125 61.433594 Z M 116.695312 71.550781 L 116.695312 72.480469 L 130.097656 72.480469 C 141.859375 72.480469 143.5 72.523438 143.5 72.824219 C 143.5 73.125 141.8125 73.171875 129.75 73.171875 L 116 73.171875 L 116 71.320312 L 35.585938 71.320312 L 35.585938 73.171875 L 21.835938 73.171875 C 9.773438 73.171875 8.085938 73.125 8.085938 72.824219 C 8.085938 72.523438 9.726562 72.480469 21.492188 72.480469 L 34.894531 72.480469 L 34.894531 70.625 L 116.695312 70.625 Z M 43.441406 80.351562 C 43.441406 83.015625 43.417969 83.175781 42.863281 83.710938 C 42.332031 84.265625 42.148438 84.289062 39.746094 84.289062 L 37.203125 84.289062 L 37.203125 83.710938 C 37.203125 83.152344 37.226562 83.152344 39.699219 83.085938 L 42.171875 83.015625 L 42.242188 80.28125 L 42.3125 77.574219 L 43.441406 77.574219 Z M 45.984375 79.632812 C 45.984375 80.769531 46.054688 81.878906 46.125 82.089844 C 46.378906 82.714844 47.511719 83.128906 48.988281 83.128906 L 50.375 83.128906 L 50.375 80.351562 C 50.375 77.621094 50.375 77.574219 50.90625 77.574219 C 51.414062 77.574219 51.414062 77.597656 51.414062 80.628906 C 51.414062 82.320312 51.324219 83.847656 51.230469 83.988281 C 50.953125 84.425781 47.832031 84.378906 46.679688 83.917969 C 45.222656 83.339844 44.828125 82.457031 44.828125 79.796875 C 44.828125 77.574219 44.828125 77.574219 45.40625 77.574219 C 45.984375 77.574219 45.984375 77.597656 45.984375 79.632812 Z M 58.925781 78.152344 L 58.925781 78.730469 L 54.050781 78.730469 L 54.117188 80.859375 L 54.1875 83.015625 L 56.566406 83.085938 C 58.902344 83.152344 58.925781 83.152344 58.925781 83.710938 C 58.925781 84.289062 58.925781 84.289062 56.523438 84.289062 C 54.464844 84.289062 54.050781 84.21875 53.519531 83.800781 C 52.941406 83.339844 52.917969 83.269531 52.917969 80.605469 C 52.917969 79.101562 52.988281 77.804688 53.078125 77.734375 C 53.148438 77.640625 54.511719 77.574219 56.082031 77.574219 L 58.925781 77.574219 Z M 66.78125 78.152344 L 66.78125 78.707031 L 64.078125 78.777344 L 61.351562 78.847656 L 61.351562 83.015625 L 63.5 83.085938 L 65.625 83.152344 L 65.625 81.507812 L 64.007812 81.507812 C 62.4375 81.507812 62.390625 81.484375 62.390625 80.929688 L 62.390625 80.328125 L 64.539062 80.398438 L 66.667969 80.46875 L 66.667969 84.171875 L 63.941406 84.242188 C 61.328125 84.3125 61.214844 84.289062 60.660156 83.730469 C 60.125 83.199219 60.082031 82.992188 60.082031 80.929688 C 60.082031 78.894531 60.125 78.660156 60.660156 78.152344 C 61.191406 77.597656 61.351562 77.574219 64.007812 77.574219 L 66.78125 77.574219 Z M 74.339844 78.335938 C 74.9375 78.9375 74.984375 79.101562 74.984375 80.929688 C 74.984375 82.761719 74.9375 82.921875 74.339844 83.523438 C 73.785156 84.101562 73.507812 84.171875 71.910156 84.242188 C 70.941406 84.289062 69.855469 84.21875 69.507812 84.078125 C 67.453125 83.292969 67.382812 78.660156 69.394531 77.804688 C 69.671875 77.6875 70.757812 77.597656 71.796875 77.640625 C 73.53125 77.6875 73.761719 77.734375 74.339844 78.335938 Z M 81.917969 80.003906 C 82.679688 81.347656 83.398438 82.414062 83.488281 82.367188 C 83.605469 82.34375 84.273438 81.277344 85.015625 80.003906 C 85.960938 78.3125 86.445312 77.6875 86.769531 77.6875 C 87.210938 77.6875 87.234375 77.898438 87.300781 80.976562 L 87.371094 84.289062 L 86.769531 84.289062 C 86.191406 84.289062 86.191406 84.265625 86.191406 82.25 L 86.191406 80.234375 L 85.015625 82.25 C 84.273438 83.546875 83.695312 84.289062 83.464844 84.289062 C 83.210938 84.289062 82.632812 83.523438 81.917969 82.25 L 80.761719 80.234375 L 80.691406 82.25 C 80.625 84.242188 80.625 84.289062 80.070312 84.289062 L 79.492188 84.289062 L 79.492188 81.09375 C 79.492188 79.332031 79.5625 77.804688 79.652344 77.734375 C 80.113281 77.25 80.648438 77.757812 81.917969 80.003906 Z M 95.390625 80.976562 L 95.457031 84.289062 L 94.859375 84.289062 C 94.351562 84.289062 94.28125 84.195312 94.28125 83.476562 L 94.28125 82.667969 L 89.890625 82.667969 L 89.890625 83.476562 C 89.890625 84.195312 89.820312 84.289062 89.289062 84.289062 L 88.6875 84.289062 L 88.78125 81.996094 C 88.828125 80.121094 88.941406 79.5625 89.335938 79.03125 C 90.167969 77.898438 91.136719 77.550781 93.355469 77.621094 L 95.320312 77.6875 Z M 100.105469 79.933594 L 102.34375 82.320312 L 102.367188 79.933594 L 102.367188 77.574219 L 103.523438 77.574219 L 103.523438 80.929688 C 103.523438 85.167969 103.476562 85.167969 100.449219 81.972656 C 99.273438 80.699219 98.207031 79.65625 98.140625 79.65625 C 98.046875 79.65625 97.976562 80.699219 97.976562 81.972656 L 97.976562 84.289062 L 96.824219 84.289062 L 96.824219 81.300781 C 96.824219 79.65625 96.890625 78.152344 96.960938 77.945312 C 97.238281 77.203125 97.910156 77.621094 100.105469 79.933594 Z M 106.296875 80.929688 L 106.296875 84.289062 L 105.140625 84.289062 L 105.140625 77.574219 L 106.296875 77.574219 Z M 114.246094 77.945312 C 114.316406 78.152344 114.382812 79.65625 114.382812 81.300781 L 114.382812 84.289062 L 113.804688 84.289062 C 113.296875 84.289062 113.230469 84.195312 113.230469 83.476562 L 113.230469 82.667969 L 108.839844 82.667969 L 108.839844 83.476562 C 108.839844 84.195312 108.769531 84.289062 108.261719 84.289062 C 107.683594 84.289062 107.683594 84.289062 107.683594 82.132812 C 107.683594 79.703125 108.050781 78.847656 109.347656 78.035156 C 110.363281 77.433594 114.015625 77.339844 114.246094 77.945312 Z M 58.464844 80.929688 C 58.464844 81.507812 58.441406 81.507812 56.5 81.507812 C 54.558594 81.507812 54.535156 81.507812 54.535156 80.929688 C 54.535156 80.351562 54.558594 80.351562 56.5 80.351562 C 58.441406 80.351562 58.464844 80.351562 58.464844 80.929688 Z M 35.539062 89.542969 L 35.609375 90.539062 L 115.980469 90.539062 L 116.046875 89.542969 L 116.117188 88.570312 L 129.820312 88.503906 C 141.882812 88.457031 143.5 88.503906 143.5 88.804688 C 143.5 89.105469 141.882812 89.152344 130.121094 89.152344 L 116.71875 89.152344 L 116.648438 90.125 L 116.578125 91.121094 L 35.007812 91.121094 L 34.9375 90.125 L 34.871094 89.152344 L 21.46875 89.152344 C 9.707031 89.152344 8.085938 89.105469 8.085938 88.804688 C 8.085938 88.503906 9.707031 88.457031 21.789062 88.503906 L 35.46875 88.570312 Z M 52.132812 93.25 C 54.371094 94.59375 58.761719 96.605469 61.535156 97.511719 C 71.148438 100.683594 82.402344 100.449219 91.738281 96.910156 C 94.441406 95.867188 97.792969 94.269531 99.664062 93.109375 C 100.542969 92.578125 101.375 92.183594 101.488281 92.207031 C 101.628906 92.253906 101.027344 92.71875 100.148438 93.25 C 92.433594 97.835938 84.550781 100.035156 75.792969 100.035156 C 67.058594 100.035156 59.710938 97.996094 51.714844 93.386719 C 50.722656 92.808594 49.914062 92.300781 49.914062 92.253906 C 49.914062 92 50.515625 92.253906 52.132812 93.25 Z M 56.636719 92.996094 C 65.488281 97.441406 77.25 98.550781 87.117188 95.867188 C 90.167969 95.03125 92.847656 94.058594 94.949219 92.996094 C 95.898438 92.507812 96.890625 92.160156 97.332031 92.183594 C 98 92.207031 97.792969 92.347656 95.78125 93.34375 C 89.195312 96.5625 83.074219 97.972656 75.769531 97.972656 C 69.925781 97.972656 65.371094 97.164062 60.082031 95.195312 C 57.863281 94.359375 53.839844 92.484375 53.839844 92.300781 C 53.839844 91.929688 55.203125 92.253906 56.636719 92.996094 Z M 56.636719 92.996094 "/>
<path style=" stroke:none;fill-rule:nonzero;fill:rgb(0%,0%,0%);fill-opacity:1;" d="M 69.484375 79.148438 C 68.90625 79.773438 68.953125 82.226562 69.507812 82.738281 C 70.132812 83.316406 73.042969 83.292969 73.550781 82.714844 C 74.128906 82.089844 74.085938 79.632812 73.53125 79.125 C 72.90625 78.546875 69.992188 78.570312 69.484375 79.148438 Z M 69.484375 79.148438 "/>
<path style=" stroke:none;fill-rule:nonzero;fill:rgb(0%,0%,0%);fill-opacity:1;" d="M 90.558594 79.402344 C 90.121094 79.867188 89.890625 80.328125 89.890625 80.792969 L 89.890625 81.507812 L 94.28125 81.507812 L 94.28125 78.730469 L 92.753906 78.730469 C 91.390625 78.730469 91.183594 78.800781 90.558594 79.402344 Z M 90.558594 79.402344 "/>
<path style=" stroke:none;fill-rule:nonzero;fill:rgb(0%,0%,0%);fill-opacity:1;" d="M 109.507812 79.402344 C 109.070312 79.867188 108.839844 80.328125 108.839844 80.792969 L 108.839844 81.507812 L 113.230469 81.507812 L 113.230469 78.730469 L 111.703125 78.730469 C 110.339844 78.730469 110.132812 78.800781 109.507812 79.402344 Z M 109.507812 79.402344 "/>
</g>
</svg>
