<?xml version="1.0" encoding="UTF-8"?>
<svg xmlns="http://www.w3.org/2000/svg" xmlns:xlink="http://www.w3.org/1999/xlink" width="100px" height="72px" viewBox="0 0 99 72" version="1.1">
<g id="surface1">
<path style=" stroke:none;fill-rule:nonzero;fill:rgb(0%,0%,0%);fill-opacity:1;" d="M 0 35.96875 L 0 71.9375 L 99.03125 71.9375 L 99.03125 0 L 0 0 Z M 54.382812 4.554688 C 65.867188 6.082031 75.464844 13.816406 79.578125 24.855469 C 81.652344 30.441406 82.003906 37.1875 80.515625 43.148438 C 80.113281 44.738281 79.148438 47.515625 78.902344 47.761719 C 78.65625 48.027344 78.75 47.640625 79.164062 46.621094 C 79.746094 45.167969 80.558594 42.035156 80.867188 40.089844 C 81.21875 37.746094 81.21875 33.269531 80.867188 30.921875 C 79.871094 24.5 77.011719 18.695312 72.546875 14.0625 C 65.113281 6.34375 54.613281 3.011719 44.296875 5.109375 C 38.308594 6.328125 33.148438 9.125 28.695312 13.585938 C 25.058594 17.210938 22.585938 21.164062 21.109375 25.703125 C 18.976562 32.21875 18.992188 39.101562 21.171875 45.464844 C 22 47.855469 22.03125 47.964844 21.847656 47.777344 C 21.296875 47.238281 19.992188 42.683594 19.574219 39.90625 C 19.238281 37.652344 19.238281 33.359375 19.574219 31.105469 C 21.632812 17.257812 32.472656 6.453125 46.214844 4.554688 C 48.242188 4.277344 52.292969 4.277344 54.382812 4.554688 Z M 54.660156 5.957031 C 59.527344 6.652344 64.023438 8.550781 68.308594 11.6875 C 69.765625 12.765625 72.867188 15.886719 74.097656 17.519531 C 78.027344 22.753906 80.054688 28.914062 80.039062 35.507812 C 80.023438 39.179688 79.578125 41.929688 78.457031 45.324219 C 78.058594 46.496094 77.917969 46.761719 77.765625 46.621094 C 77.597656 46.480469 77.644531 46.203125 78.011719 45.109375 C 79.085938 41.945312 79.5625 38.964844 79.5625 35.582031 C 79.5625 27.554688 76.613281 20.316406 71.085938 14.804688 C 65.328125 9.0625 58.328125 6.144531 50.359375 6.144531 C 42.390625 6.144531 35.28125 9.109375 29.632812 14.820312 C 24.074219 20.410156 21.1875 27.449219 21.15625 35.429688 C 21.140625 39.011719 21.570312 41.710938 22.648438 44.9375 C 23.046875 46.125 23.121094 46.480469 22.96875 46.605469 C 22.617188 46.914062 21.464844 43.070312 20.957031 39.828125 C 20.40625 36.371094 20.652344 31.660156 21.601562 28.097656 C 23.046875 22.570312 25.410156 18.417969 29.308594 14.496094 C 32.625 11.191406 35.757812 9.140625 39.996094 7.535156 C 44.585938 5.789062 49.667969 5.25 54.660156 5.957031 Z M 60.878906 25.007812 L 71.316406 35.507812 L 65.851562 41 L 60.402344 46.480469 L 59.554688 46.4375 L 58.726562 46.390625 L 64.101562 40.941406 L 69.460938 35.492188 L 60.21875 26.195312 L 50.972656 16.902344 L 50.972656 36.433594 L 49.746094 36.433594 L 49.746094 16.902344 L 40.503906 26.195312 L 31.261719 35.492188 L 36.617188 40.941406 L 41.960938 46.390625 L 41.148438 46.4375 L 40.320312 46.480469 L 34.867188 41 L 29.402344 35.507812 L 39.84375 25.007812 C 45.585938 19.234375 50.3125 14.511719 50.359375 14.511719 C 50.40625 14.511719 55.136719 19.234375 60.878906 25.007812 Z M 45.769531 17.195312 C 45.09375 17.875 44.601562 18.230469 44.171875 18.371094 C 43.203125 18.648438 40.472656 20.128906 39.398438 20.964844 C 36.816406 22.957031 34.820312 25.578125 33.53125 28.683594 C 33.039062 29.855469 32.78125 30.273438 32.027344 31 L 31.136719 31.878906 L 31.246094 31.261719 C 31.460938 30.011719 32.152344 28.125 32.964844 26.507812 C 35.28125 21.9375 39.257812 18.507812 44.140625 16.859375 C 46.828125 15.945312 46.964844 15.976562 45.769531 17.195312 Z M 56.578125 16.859375 C 58.175781 17.398438 59.988281 18.261719 61.152344 19.050781 C 63.148438 20.394531 65.390625 22.632812 66.710938 24.621094 C 67.910156 26.445312 69.152344 29.4375 69.476562 31.261719 L 69.582031 31.878906 L 68.660156 30.96875 C 68.140625 30.457031 67.648438 29.839844 67.539062 29.578125 C 67.019531 28.21875 66.40625 26.890625 65.972656 26.183594 C 64.855469 24.328125 63.027344 22.292969 61.246094 20.902344 C 60.246094 20.128906 57.484375 18.632812 56.546875 18.371094 C 56.101562 18.230469 55.625 17.875 54.933594 17.183594 L 53.96875 16.179688 L 54.582031 16.285156 C 54.917969 16.332031 55.824219 16.59375 56.578125 16.859375 Z M 33.257812 41.664062 C 33.625 42.667969 34.746094 44.875 35.296875 45.695312 L 35.773438 46.390625 L 34.992188 46.4375 C 34.5625 46.464844 34.132812 46.40625 34.023438 46.328125 C 33.917969 46.234375 33.441406 45.417969 32.980469 44.507812 C 32.152344 42.902344 31.460938 41.015625 31.246094 39.75 L 31.136719 39.132812 L 32.058594 40.042969 C 32.65625 40.632812 33.085938 41.203125 33.257812 41.664062 Z M 69.183594 40.957031 C 68.96875 41.742188 68.339844 43.269531 67.769531 44.414062 L 66.742188 46.464844 L 65.835938 46.464844 C 65.144531 46.464844 64.960938 46.421875 65.039062 46.265625 C 65.097656 46.171875 65.375 45.726562 65.652344 45.308594 C 66.28125 44.304688 67.15625 42.546875 67.402344 41.757812 C 67.617188 41.109375 69.429688 39.054688 69.519531 39.351562 C 69.550781 39.441406 69.398438 40.167969 69.183594 40.957031 Z M 77.535156 47.703125 L 77.535156 48.320312 L 86.441406 48.320312 C 94.253906 48.320312 95.347656 48.351562 95.347656 48.550781 C 95.347656 48.75 94.226562 48.78125 86.210938 48.78125 L 77.074219 48.78125 L 77.074219 47.546875 L 23.644531 47.546875 L 23.644531 48.78125 L 14.507812 48.78125 C 6.496094 48.78125 5.375 48.75 5.375 48.550781 C 5.375 48.351562 6.464844 48.320312 14.277344 48.320312 L 23.183594 48.320312 L 23.183594 47.085938 L 77.535156 47.085938 Z M 28.863281 53.566406 C 28.863281 55.34375 28.847656 55.449219 28.480469 55.804688 C 28.128906 56.175781 28.003906 56.191406 26.40625 56.191406 L 24.71875 56.191406 L 24.71875 55.804688 C 24.71875 55.4375 24.734375 55.4375 26.378906 55.390625 L 28.019531 55.34375 L 28.066406 53.519531 L 28.113281 51.714844 L 28.863281 51.714844 Z M 30.554688 53.089844 C 30.554688 53.84375 30.601562 54.585938 30.644531 54.726562 C 30.816406 55.140625 31.566406 55.421875 32.550781 55.421875 L 33.472656 55.421875 L 33.472656 53.566406 C 33.472656 51.746094 33.472656 51.714844 33.824219 51.714844 C 34.160156 51.714844 34.160156 51.730469 34.160156 53.753906 C 34.160156 54.878906 34.101562 55.898438 34.039062 55.992188 C 33.855469 56.285156 31.78125 56.253906 31.015625 55.945312 C 30.046875 55.558594 29.785156 54.972656 29.785156 53.195312 C 29.785156 51.714844 29.785156 51.714844 30.167969 51.714844 C 30.554688 51.714844 30.554688 51.730469 30.554688 53.089844 Z M 39.152344 52.101562 L 39.152344 52.488281 L 35.910156 52.488281 L 35.957031 53.90625 L 36.003906 55.34375 L 37.585938 55.390625 C 39.136719 55.4375 39.152344 55.4375 39.152344 55.804688 C 39.152344 56.191406 39.152344 56.191406 37.554688 56.191406 C 36.1875 56.191406 35.910156 56.144531 35.558594 55.867188 C 35.175781 55.558594 35.160156 55.511719 35.160156 53.738281 C 35.160156 52.734375 35.207031 51.871094 35.265625 51.824219 C 35.3125 51.761719 36.21875 51.714844 37.261719 51.714844 L 39.152344 51.714844 Z M 44.371094 52.101562 L 44.371094 52.472656 L 42.574219 52.519531 L 40.765625 52.5625 L 40.765625 55.34375 L 42.191406 55.390625 L 43.605469 55.4375 L 43.605469 54.339844 L 42.53125 54.339844 C 41.484375 54.339844 41.453125 54.324219 41.453125 53.953125 L 41.453125 53.550781 L 42.882812 53.597656 L 44.296875 53.644531 L 44.296875 56.113281 L 42.484375 56.160156 C 40.75 56.207031 40.671875 56.191406 40.304688 55.820312 C 39.949219 55.464844 39.917969 55.328125 39.917969 53.953125 C 39.917969 52.59375 39.949219 52.441406 40.304688 52.101562 C 40.65625 51.730469 40.765625 51.714844 42.53125 51.714844 L 44.371094 51.714844 Z M 49.390625 52.226562 C 49.792969 52.625 49.824219 52.734375 49.824219 53.953125 C 49.824219 55.171875 49.792969 55.28125 49.390625 55.683594 C 49.023438 56.070312 48.839844 56.113281 47.78125 56.160156 C 47.136719 56.191406 46.414062 56.144531 46.183594 56.054688 C 44.816406 55.527344 44.769531 52.441406 46.105469 51.871094 C 46.292969 51.792969 47.011719 51.730469 47.703125 51.761719 C 48.855469 51.792969 49.007812 51.824219 49.390625 52.226562 Z M 54.429688 53.335938 C 54.933594 54.230469 55.410156 54.941406 55.472656 54.910156 C 55.550781 54.894531 55.996094 54.183594 56.484375 53.335938 C 57.117188 52.210938 57.4375 51.792969 57.652344 51.792969 C 57.945312 51.792969 57.960938 51.929688 58.007812 53.984375 L 58.050781 56.191406 L 57.652344 56.191406 C 57.269531 56.191406 57.269531 56.175781 57.269531 54.832031 L 57.269531 53.492188 L 56.484375 54.832031 C 55.996094 55.699219 55.609375 56.191406 55.457031 56.191406 C 55.289062 56.191406 54.90625 55.683594 54.429688 54.832031 L 53.660156 53.492188 L 53.613281 54.832031 C 53.570312 56.160156 53.570312 56.191406 53.199219 56.191406 L 52.816406 56.191406 L 52.816406 54.0625 C 52.816406 52.886719 52.863281 51.871094 52.925781 51.824219 C 53.230469 51.5 53.585938 51.839844 54.429688 53.335938 Z M 63.378906 53.984375 L 63.425781 56.191406 L 63.027344 56.191406 C 62.6875 56.191406 62.644531 56.128906 62.644531 55.652344 L 62.644531 55.113281 L 59.726562 55.113281 L 59.726562 55.652344 C 59.726562 56.128906 59.679688 56.191406 59.328125 56.191406 L 58.925781 56.191406 L 58.988281 54.664062 C 59.019531 53.414062 59.097656 53.042969 59.355469 52.6875 C 59.910156 51.929688 60.554688 51.699219 62.027344 51.746094 L 63.332031 51.792969 Z M 66.511719 53.289062 L 68 54.878906 L 68.015625 53.289062 L 68.015625 51.714844 L 68.785156 51.714844 L 68.785156 53.953125 C 68.785156 56.777344 68.753906 56.777344 66.742188 54.648438 C 65.960938 53.800781 65.253906 53.105469 65.207031 53.105469 C 65.144531 53.105469 65.097656 53.800781 65.097656 54.648438 L 65.097656 56.191406 L 64.332031 56.191406 L 64.332031 54.199219 C 64.332031 53.105469 64.378906 52.101562 64.421875 51.960938 C 64.609375 51.46875 65.054688 51.746094 66.511719 53.289062 Z M 70.625 53.953125 L 70.625 56.191406 L 69.859375 56.191406 L 69.859375 51.714844 L 70.625 51.714844 Z M 75.90625 51.960938 C 75.953125 52.101562 76 53.105469 76 54.199219 L 76 56.191406 L 75.617188 56.191406 C 75.277344 56.191406 75.234375 56.128906 75.234375 55.652344 L 75.234375 55.113281 L 72.316406 55.113281 L 72.316406 55.652344 C 72.316406 56.128906 72.269531 56.191406 71.929688 56.191406 C 71.546875 56.191406 71.546875 56.191406 71.546875 54.757812 C 71.546875 53.136719 71.792969 52.5625 72.652344 52.023438 C 73.328125 51.621094 75.753906 51.5625 75.90625 51.960938 Z M 38.84375 53.953125 C 38.84375 54.339844 38.828125 54.339844 37.539062 54.339844 C 36.25 54.339844 36.234375 54.339844 36.234375 53.953125 C 36.234375 53.566406 36.25 53.566406 37.539062 53.566406 C 38.828125 53.566406 38.84375 53.566406 38.84375 53.953125 Z M 23.613281 59.695312 L 23.660156 60.359375 L 77.058594 60.359375 L 77.105469 59.695312 L 77.152344 59.046875 L 86.257812 59 C 94.269531 58.972656 95.347656 59 95.347656 59.203125 C 95.347656 59.402344 94.269531 59.433594 86.457031 59.433594 L 77.550781 59.433594 L 77.503906 60.082031 L 77.457031 60.746094 L 23.261719 60.746094 L 23.214844 60.082031 L 23.167969 59.433594 L 14.261719 59.433594 C 6.449219 59.433594 5.375 59.402344 5.375 59.203125 C 5.375 59 6.449219 58.972656 14.476562 59 L 23.566406 59.046875 Z M 34.636719 62.167969 C 36.128906 63.0625 39.042969 64.40625 40.886719 65.007812 C 47.273438 67.121094 54.75 66.96875 60.953125 64.605469 C 62.75 63.910156 64.976562 62.84375 66.21875 62.074219 C 66.804688 61.71875 67.355469 61.457031 67.433594 61.472656 C 67.523438 61.503906 67.125 61.8125 66.542969 62.167969 C 61.414062 65.222656 56.179688 66.691406 50.359375 66.691406 C 44.554688 66.691406 39.671875 65.332031 34.363281 62.257812 C 33.699219 61.875 33.164062 61.535156 33.164062 61.503906 C 33.164062 61.332031 33.5625 61.503906 34.636719 62.167969 Z M 37.632812 61.996094 C 43.511719 64.960938 51.328125 65.703125 57.882812 63.910156 C 59.910156 63.355469 61.691406 62.707031 63.089844 61.996094 C 63.71875 61.671875 64.378906 61.441406 64.667969 61.457031 C 65.113281 61.472656 64.976562 61.5625 63.640625 62.226562 C 59.265625 64.375 55.195312 65.316406 50.34375 65.316406 C 46.460938 65.316406 43.433594 64.773438 39.917969 63.464844 C 38.445312 62.90625 35.773438 61.65625 35.773438 61.535156 C 35.773438 61.285156 36.679688 61.503906 37.632812 61.996094 Z M 37.632812 61.996094 "/>
<path style=" stroke:none;fill-rule:nonzero;fill:rgb(0%,0%,0%);fill-opacity:1;" d="M 46.167969 52.765625 C 45.785156 53.183594 45.816406 54.816406 46.183594 55.15625 C 46.597656 55.542969 48.53125 55.527344 48.871094 55.140625 C 49.253906 54.726562 49.222656 53.089844 48.855469 52.75 C 48.441406 52.363281 46.507812 52.378906 46.167969 52.765625 Z M 46.167969 52.765625 "/>
<path style=" stroke:none;fill-rule:nonzero;fill:rgb(0%,0%,0%);fill-opacity:1;" d="M 60.171875 52.933594 C 59.878906 53.242188 59.726562 53.550781 59.726562 53.859375 L 59.726562 54.339844 L 62.644531 54.339844 L 62.644531 52.488281 L 61.628906 52.488281 C 60.722656 52.488281 60.585938 52.535156 60.171875 52.933594 Z M 60.171875 52.933594 "/>
<path style=" stroke:none;fill-rule:nonzero;fill:rgb(0%,0%,0%);fill-opacity:1;" d="M 72.761719 52.933594 C 72.46875 53.242188 72.316406 53.550781 72.316406 53.859375 L 72.316406 54.339844 L 75.234375 54.339844 L 75.234375 52.488281 L 74.21875 52.488281 C 73.3125 52.488281 73.175781 52.535156 72.761719 52.933594 Z M 72.761719 52.933594 "/>
</g>
</svg>
