<?xml version="1.0" encoding="UTF-8"?>
<svg xmlns="http://www.w3.org/2000/svg" xmlns:xlink="http://www.w3.org/1999/xlink" width="19px" height="19px" viewBox="0 0 19 19" version="1.1">
<g id="surface1">
<path style=" stroke:none;fill-rule:nonzero;fill:rgb(0%,0%,0%);fill-opacity:1;" d="M 5.550781 0.1875 C 4.558594 0.3125 3.664062 0.640625 2.832031 1.191406 C 2.28125 1.558594 1.558594 2.28125 1.191406 2.832031 C -0.0234375 4.664062 -0.1875 6.921875 0.761719 8.886719 C 1.320312 10.054688 2.402344 11.136719 3.574219 11.707031 C 5.445312 12.613281 7.691406 12.503906 9.40625 11.414062 C 9.59375 11.300781 9.769531 11.183594 9.808594 11.160156 C 9.863281 11.117188 10.304688 11.546875 13.628906 14.875 C 16.308594 17.554688 17.417969 18.636719 17.5 18.664062 C 17.710938 18.722656 17.871094 18.628906 18.289062 18.207031 L 18.664062 17.820312 L 18.664062 17.421875 L 14.898438 13.65625 C 12.828125 11.585938 11.132812 9.878906 11.132812 9.863281 C 11.132812 9.847656 11.207031 9.722656 11.300781 9.585938 C 12.640625 7.589844 12.640625 4.921875 11.300781 2.875 C 11.039062 2.480469 10.929688 2.339844 10.546875 1.957031 C 9.667969 1.058594 8.539062 0.46875 7.285156 0.242188 C 6.898438 0.171875 5.914062 0.140625 5.550781 0.1875 Z M 6.882812 0.484375 C 9.90625 0.824219 12.152344 3.460938 12.011719 6.5 C 11.941406 7.972656 11.359375 9.273438 10.296875 10.335938 C 9.460938 11.175781 8.507812 11.6875 7.335938 11.917969 C 6.742188 12.039062 5.6875 12.039062 5.121094 11.914062 C 3.277344 11.523438 1.777344 10.355469 1 8.707031 C 0.671875 8.007812 0.496094 7.292969 0.457031 6.492188 C 0.347656 4.222656 1.589844 2.105469 3.625 1.074219 C 4.621094 0.5625 5.773438 0.359375 6.882812 0.484375 Z M 18.40625 17.625 C 18.40625 17.695312 17.703125 18.40625 17.628906 18.40625 C 17.597656 18.40625 15.894531 16.730469 13.84375 14.675781 L 10.113281 10.945312 L 10.519531 10.527344 L 10.929688 10.109375 L 14.667969 13.84375 C 16.726562 15.894531 18.40625 17.597656 18.40625 17.625 Z M 18.40625 17.625 "/>
<path style=" stroke:none;fill-rule:nonzero;fill:rgb(0%,0%,0%);fill-opacity:1;" d="M 5.546875 1.6875 C 5.085938 1.757812 4.691406 1.882812 4.277344 2.078125 C 3.765625 2.324219 3.390625 2.585938 2.988281 2.988281 C 1.789062 4.1875 1.355469 5.875 1.820312 7.53125 C 1.921875 7.902344 2.210938 8.5 2.457031 8.859375 C 2.710938 9.226562 3.242188 9.757812 3.609375 10.011719 C 4.96875 10.945312 6.71875 11.09375 8.1875 10.394531 C 9.324219 9.851562 10.152344 8.933594 10.570312 7.75 C 10.75 7.234375 10.8125 6.84375 10.8125 6.234375 C 10.8125 5.625 10.75 5.230469 10.570312 4.71875 C 10.152344 3.535156 9.324219 2.617188 8.1875 2.074219 C 7.378906 1.691406 6.421875 1.550781 5.546875 1.6875 Z M 7.199219 2.039062 C 8.027344 2.242188 8.671875 2.605469 9.265625 3.199219 C 10.75 4.671875 10.953125 6.96875 9.757812 8.695312 C 9.539062 9.019531 9.039062 9.523438 8.71875 9.746094 C 7.4375 10.648438 5.792969 10.785156 4.390625 10.113281 C 3.921875 9.890625 3.640625 9.691406 3.238281 9.304688 C 2.847656 8.921875 2.589844 8.570312 2.355469 8.082031 C 1.683594 6.679688 1.820312 5.058594 2.710938 3.765625 C 2.929688 3.445312 3.484375 2.902344 3.816406 2.675781 C 4.304688 2.34375 5.03125 2.058594 5.621094 1.96875 C 5.980469 1.910156 6.835938 1.953125 7.199219 2.039062 Z M 7.199219 2.039062 "/>
</g>
</svg>
